<svg xmlns="http://www.w3.org/2000/svg" xmlns:xlink="http://www.w3.org/1999/xlink" version="1.0" x="0px" y="0px" width="100px" height="100px" viewBox="0 0 100 100" enable-background="new 0 0 100 100" xml:space="preserve">
<g id="Captions">
</g>
<g id="Your_Icon">
	<path fill="#000000" d="M1.994,28.088v59.06c0,7.068,5.782,12.852,12.85,12.852h70.3c7.068,0,12.85-5.784,12.85-12.852v-59.06   H1.994z M26.021,88.025H13.997V76.001h12.024V88.025z M26.021,68.015H13.997V55.984h12.024V68.015z M26.021,48.012H13.997V35.986   h12.024V48.012z M46.008,88.025H33.98V76.001h12.028V88.025z M46.008,68.015H33.98V55.984h12.028V68.015z M46.008,48.012H33.98   V35.986h12.028V48.012z M66.007,88.025H53.984V76.001h12.024V88.025z M66.007,68.015H53.984V55.984h12.024V68.015z M66.007,48.012   H53.984V35.986h12.024V48.012z M86.007,88.025H73.983V76.001h12.024V88.025z M86.007,68.015H73.983V55.984h12.024V68.015z    M86.007,48.012H73.983V35.986h12.024V48.012z"/>
	<path fill="#000000" d="M81.986,3.965H18.014c-8.809,0-16.016,7.204-16.016,16.016v0.002h88.106l7.902-0.002   C98.006,11.169,90.796,3.965,81.986,3.965z M29.993,15.977c-2.21,0-4.004-1.792-4.004-4.004c0-2.21,1.794-4.004,4.004-4.004   c2.214,0,4.008,1.794,4.008,4.004C34.001,14.185,32.206,15.977,29.993,15.977z M70.081,15.977c-2.214,0-4.004-1.792-4.004-4.004   c0-2.21,1.79-4.004,4.004-4.004c2.209,0,4.004,1.794,4.004,4.004C74.084,14.185,72.29,15.977,70.081,15.977z"/>
	<path fill="#000000" d="M71.997,10c0,1.107-0.895,2-2.002,2l0,0c-1.107,0-2.002-0.893-2.002-2V2.002   C67.993,0.901,68.888,0,69.995,0l0,0c1.107,0,2.002,0.901,2.002,2.002V10z"/>
	<path fill="#000000" d="M31.97,10c0,1.107-0.895,2-2.002,2l0,0c-1.103,0-1.998-0.893-1.998-2V2.002C27.97,0.901,28.866,0,29.968,0   l0,0c1.107,0,2.002,0.901,2.002,2.002V10z"/>
</g>
</svg>